# xmcd
#
# Track frame offsets:
#	150
#	12601
#	25326
#	40682
#	54926
#	71828
#	83019
#	96129
#	114079
#	124621
#	137675
#	148914
#	158954
#	168650
#	179867
#	190330
#	201211
#	214033
#	224822
#
# Disc length: 3127 seconds
#
# Revision: 0
# Processed by: cddbd v1.4PL0 Copyright (c) Steve Scherf et al.
# Submitted via: dBpowerAMP V4.0
#
DISCID=210c3513
DTITLE=John Lee Hooker - Boom Boom
DYEAR=2002
DGENRE=Blues
TTITLE0=I'm mad
TTITLE1=Everybody's blues
TTITLE2=Nothin' but trouble
TTITLE3=I need love so bad
TTITLE4=Don't trust nobody
TTITLE5=Boom Boom
TTITLE6=I want to hug you
TTITLE7=House rent boogie
TTITLE8=Want ad blues
TTITLE9=I'm so exited
TTITLE10=Hard headed woman
TTITLE11=I wanna walk
TTITLE12=Onions
TTITLE13=What do you say
TTITLE14=Keep your hands to yourself
TTITLE15=Send me your pillow
TTITLE16=She shot me down
TTITLE17=I want to shout
TTITLE18=I'm leaving (baby)
EXTD=
EXTT0=
EXTT1=
EXTT2=
EXTT3=
EXTT4=
EXTT5=
EXTT6=
EXTT7=
EXTT8=
EXTT9=
EXTT10=
EXTT11=
EXTT12=
EXTT13=
EXTT14=
EXTT15=
EXTT16=
EXTT17=
EXTT18=
PLAYORDER=
